<svg xmlns="http://www.w3.org/2000/svg" width="24" height="24" viewBox="0 0 24 24" fill="none" stroke="#df5046" stroke-width="2" stroke-linecap="round" stroke-linejoin="round">
  <path d="M2 18s-1 1-2 0c0-2 1-3.2 2-3.2l.6-.3A10 10 0 0 1 22 8c0 1.2-1.3 2-2 2-1.3 0-2.4-.4-3.5-1A4 4 0 0 0 11.5 8c-.7-.3-1.4-.5-2-.6A2 2 0 0 0 7 7c-.6 0-1.2.2-2.3.6C3 8.3 2 9.5 2 12s1 2 2 2h3.5l1.6-.8a2 2 0 0 1 2 0c.7.3 1.5.5 2.5.6a4 4 0 0 0 4.5 3c.7.3 1.5.5 2 .5 1.3 0 2.4-.4 3.5-1A10 10 0 0 0 22 16c0-1.2-1.3-2-2-2-1.3 0-2.4-.4-3.5-1A4 4 0 0 0 11.5 14c-.7-.3-1.4-.5-2-.6A2 2 0 0 0 7 13c-.6 0-1.2.2-2.3.6C3 14.3 2 15.5 2 18Z" />
</svg>
